<mxfile host="e48c9846-da09-48d1-8ec2-fe7bfb4687fb" modified="2020-09-02T23:57:51.128Z" agent="5.0 (Windows NT 10.0; Win64; x64) AppleWebKit/537.36 (KHTML, like Gecko) Code/1.47.3 Chrome/78.0.3904.130 Electron/7.3.2 Safari/537.36" etag="mTEHebUsZYSQjpbPQ50d" version="13.1.3">
    <diagram id="6hGFLwfOUW9BJ-s0fimq" name="Page-1">
        <mxGraphModel dx="814" dy="673" grid="1" gridSize="10" guides="1" tooltips="1" connect="1" arrows="1" fold="1" page="1" pageScale="1" pageWidth="800" pageHeight="500" math="0" shadow="0">
            <root>
                <mxCell id="0"/>
                <mxCell id="1" parent="0"/>
                <mxCell id="63" value="" style="rounded=0;whiteSpace=wrap;html=1;align=left;" parent="1" vertex="1">
                    <mxGeometry width="800" height="500" as="geometry"/>
                </mxCell>
                <mxCell id="3" value="&lt;b&gt;&lt;font style=&quot;font-size: 16px&quot;&gt;&amp;nbsp; Web打刻自動入力システム&lt;/font&gt;&lt;/b&gt;" style="rounded=0;whiteSpace=wrap;html=1;align=left;verticalAlign=top;" parent="1" vertex="1">
                    <mxGeometry x="10" y="10" width="450" height="480" as="geometry"/>
                </mxCell>
                <mxCell id="10" style="edgeStyle=orthogonalEdgeStyle;rounded=0;orthogonalLoop=1;jettySize=auto;html=1;exitX=0.5;exitY=1;exitDx=0;exitDy=0;" parent="1" edge="1">
                    <mxGeometry relative="1" as="geometry">
                        <mxPoint x="80" y="150" as="sourcePoint"/>
                        <mxPoint x="80" y="150" as="targetPoint"/>
                    </mxGeometry>
                </mxCell>
                <mxCell id="12" value="&lt;font style=&quot;font-size: 16px&quot;&gt;COMPANY HR&lt;br&gt;Web打刻&lt;/font&gt;" style="rounded=0;whiteSpace=wrap;html=1;" parent="1" vertex="1">
                    <mxGeometry x="662.5" y="286" width="130" height="170" as="geometry"/>
                </mxCell>
                <mxCell id="64" style="edgeStyle=orthogonalEdgeStyle;rounded=0;orthogonalLoop=1;jettySize=auto;html=1;" edge="1" parent="1" source="18" target="36">
                    <mxGeometry relative="1" as="geometry"/>
                </mxCell>
                <mxCell id="65" style="edgeStyle=orthogonalEdgeStyle;rounded=0;orthogonalLoop=1;jettySize=auto;html=1;entryX=1;entryY=0.5;entryDx=0;entryDy=0;entryPerimeter=0;" edge="1" parent="1" source="18" target="36">
                    <mxGeometry relative="1" as="geometry">
                        <Array as="points">
                            <mxPoint x="727" y="235"/>
                        </Array>
                    </mxGeometry>
                </mxCell>
                <mxCell id="18" value="&lt;b&gt;ローカルストレージ&lt;/b&gt;" style="shape=cylinder;whiteSpace=wrap;html=1;boundedLbl=1;backgroundOutline=1;" parent="1" vertex="1">
                    <mxGeometry x="670" y="15.799999999999997" width="115" height="104.6" as="geometry"/>
                </mxCell>
                <mxCell id="61" style="edgeStyle=orthogonalEdgeStyle;rounded=0;orthogonalLoop=1;jettySize=auto;html=1;entryX=0;entryY=0.75;entryDx=0;entryDy=0;" parent="1" source="32" target="12" edge="1">
                    <mxGeometry relative="1" as="geometry"/>
                </mxCell>
                <mxCell id="32" value="勤務実績入力画面で&lt;br&gt;動作するスクリプト" style="shadow=0;dashed=0;html=1;strokeColor=#6c8ebf;fillColor=#dae8fc;labelPosition=center;verticalLabelPosition=bottom;verticalAlign=top;align=center;outlineConnect=0;shape=mxgraph.veeam.2d.file;" parent="1" vertex="1">
                    <mxGeometry x="216.6" y="388" width="36.8" height="50.8" as="geometry"/>
                </mxCell>
                <mxCell id="40" style="edgeStyle=orthogonalEdgeStyle;rounded=0;orthogonalLoop=1;jettySize=auto;html=1;entryX=0;entryY=0.5;entryDx=0;entryDy=0;" parent="1" source="33" target="18" edge="1">
                    <mxGeometry relative="1" as="geometry"/>
                </mxCell>
                <mxCell id="33" value="設定画面で動作する&lt;br&gt;スクリプト" style="shadow=0;dashed=0;html=1;strokeColor=#82b366;fillColor=#d5e8d4;labelPosition=center;verticalLabelPosition=bottom;verticalAlign=top;align=center;outlineConnect=0;shape=mxgraph.veeam.2d.file;" parent="1" vertex="1">
                    <mxGeometry x="216.6" y="42.700000000000024" width="36.8" height="50.8" as="geometry"/>
                </mxCell>
                <mxCell id="59" style="edgeStyle=orthogonalEdgeStyle;rounded=0;orthogonalLoop=1;jettySize=auto;html=1;" parent="1" source="36" target="32" edge="1">
                    <mxGeometry relative="1" as="geometry">
                        <Array as="points">
                            <mxPoint x="60" y="235"/>
                            <mxPoint x="60" y="413.4000000000001"/>
                        </Array>
                    </mxGeometry>
                </mxCell>
                <mxCell id="36" value="設定画面のローカルストレージ&lt;br&gt;の値を要求・応答するスクリプト" style="shadow=0;dashed=0;html=1;strokeColor=#b85450;fillColor=#f8cecc;labelPosition=center;verticalLabelPosition=bottom;verticalAlign=top;align=center;outlineConnect=0;shape=mxgraph.veeam.2d.file;" parent="1" vertex="1">
                    <mxGeometry x="215" y="209.6" width="40" height="50.8" as="geometry"/>
                </mxCell>
                <mxCell id="41" value="ローカルストレージへ値を保存" style="text;html=1;align=center;verticalAlign=middle;resizable=0;points=[];autosize=1;fillColor=#d5e8d4;strokeColor=#82b366;" parent="1" vertex="1">
                    <mxGeometry x="470" y="58" width="180" height="20" as="geometry"/>
                </mxCell>
                <mxCell id="52" value="ローカルストレージ値の要求・応答" style="text;html=1;align=center;verticalAlign=middle;resizable=0;points=[];autosize=1;fillColor=#f8cecc;strokeColor=#b85450;" parent="1" vertex="1">
                    <mxGeometry x="470" y="225" width="210" height="20" as="geometry"/>
                </mxCell>
                <mxCell id="55" value="ローカル&lt;br&gt;ストレージ&lt;br&gt;値の&lt;br&gt;要求・応答" style="text;html=1;align=center;verticalAlign=middle;resizable=0;points=[];autosize=1;fillColor=#f8cecc;strokeColor=#b85450;" parent="1" vertex="1">
                    <mxGeometry x="19.99999999999998" y="290" width="80" height="60" as="geometry"/>
                </mxCell>
                <mxCell id="62" value="設定値の自動入力" style="text;html=1;align=center;verticalAlign=middle;resizable=0;points=[];autosize=1;fillColor=#dae8fc;strokeColor=#6c8ebf;" parent="1" vertex="1">
                    <mxGeometry x="470" y="403" width="110" height="20" as="geometry"/>
                </mxCell>
            </root>
        </mxGraphModel>
    </diagram>
</mxfile>